<svg xmlns:xlink="http://www.w3.org/1999/xlink" viewBox="0 0 128 128" xmlns="http://www.w3.org/2000/svg"
    data-theme="dark" class="netlify-logo-encapsulated netlify-logo" style="width:100px;height:100px;" fill="none"
    width="80" height="80">
    <g fill="#FFFFFF" class="netlify-logo-encapsulated-bg">
        <path
            d="M125.189 54.7739L73.2261 2.81074L71.2959 0.885028L69.1612 0H66.4394H61.5606H58.8388L56.7041 0.885028L54.7739 2.81074L2.81074 54.7739L0.885028 56.7041L0 58.8388V61.5606V66.4394V69.1612L0.885028 71.2959L2.81074 73.2261L54.7739 125.189L56.7041 127.115L58.8388 128H61.5606H66.4394H69.1612L71.2959 127.115L73.2261 125.189L125.189 73.2261L127.115 71.2959L128 69.1612V66.4394V61.5606V58.8388L127.115 56.7041L125.189 54.7739Z"
            fill="#FFFFFF"></path>
    </g>
    <g fill="#05BDBA" class="netlify-logo-encapsulated-lines">
        <path
            d="M59.3682 116.019V91.0556L60.0308 90.393H67.9738L68.6365 91.0556V116.019L67.9738 116.681H60.0308L59.3682 116.019Z"
            fill="#05BDBA"></path>
        <path
            d="M59.3682 36.9444V11.9812L60.0308 11.3186H67.9738L68.6365 11.9812V36.9444L67.9738 37.607H60.0308L59.3682 36.9444Z"
            fill="#05BDBA"></path>
        <path
            d="M38.3899 97.5221H37.2958L31.8389 92.0652V90.9711L39.1103 83.6952L44.8875 83.6997L45.6613 84.4691V90.2462L38.3899 97.5221Z"
            fill="#05BDBA"></path>
        <path
            d="M31.8389 37.3046V36.215L37.2958 30.7536H38.3854L45.6613 38.0295V43.8022L44.8919 44.5805H39.1148L31.8389 37.3046Z"
            fill="#05BDBA"></path>
        <path
            d="M9.85992 59.3547H37.9362L38.5989 60.0174V67.9693L37.9362 68.632H9.85992L9.19727 67.9693V60.0174L9.85992 59.3547Z"
            fill="#05BDBA"></path>
        <path
            d="M118.14 68.6453H90.064L89.4014 67.9826V60.0307L90.064 59.3681H118.14L118.803 60.0307V67.9826L118.14 68.6453Z"
            fill="#05BDBA"></path>
    </g>
    <g fill="#014847" class="netlify-logo-encapsulated-text">
        <path
            d="M78.8832 80.5376H70.9446L70.2819 79.8749V61.2938C70.2864 57.9849 68.9878 55.4232 64.994 55.3387C62.9438 55.2854 60.5911 55.3387 58.0828 55.441L57.7048 55.8279V63.3351L57.7092 79.8749L57.0465 80.5376H49.108L48.4453 79.8749V48.1251L49.108 47.4624H66.9686C73.911 47.4624 79.5369 53.0884 79.5369 60.0307V79.8749L78.8743 80.5376H78.8832Z"
            fill="#014847"></path>
    </g>
</svg>